<?xml version="1.0" encoding="iso-8859-1"?>
<!-- Generator: Adobe Illustrator 19.0.0, SVG Export Plug-In . SVG Version: 6.00 Build 0)  -->
<svg version="1.1" id="Capa_1" xmlns="http://www.w3.org/2000/svg" xmlns:xlink="http://www.w3.org/1999/xlink" x="0px" y="0px"
	 viewBox="0 0 512 512" width="30px" height="30px" style="enable-background:new 0 0 512 512;transform:rotate(270deg);" xml:space="preserve">
<g>
	<path style="fill:#F9D366;" d="M252.491,82.423l5.022-1.018c6.628-1.343,6.628-10.816,0-12.16l-5.022-1.018
		c-12.651-2.565-22.539-12.452-25.104-25.104l-1.018-5.022c-1.343-6.628-10.816-6.628-12.16,0l-1.018,5.022
		c-2.565,12.651-12.452,22.539-25.104,25.104l-5.022,1.018c-6.628,1.343-6.628,10.816,0,12.16l5.022,1.018
		c12.651,2.565,22.539,12.452,25.104,25.104l1.018,5.022c1.343,6.628,10.816,6.628,12.16,0l1.018-5.022
		C229.953,94.876,239.84,84.988,252.491,82.423z"/>
	<path style="fill:#F9D366;" d="M459.935,36.552c-4.389,0-7.946-3.558-7.946-7.946V7.946c0-4.388,3.557-7.946,7.946-7.946
		c4.389,0,7.946,3.558,7.946,7.946v20.659C467.882,32.994,464.324,36.552,459.935,36.552z"/>
	<path style="fill:#F9D366;" d="M459.935,92.172c-4.389,0-7.946-3.558-7.946-7.946V63.567c0-4.388,3.557-7.946,7.946-7.946
		c4.389,0,7.946,3.558,7.946,7.946v20.659C467.882,88.614,464.324,92.172,459.935,92.172z"/>
	<path style="fill:#F9D366;" d="M498.076,54.032h-20.659c-4.389,0-7.946-3.558-7.946-7.946s3.557-7.946,7.946-7.946h20.659
		c4.389,0,7.946,3.558,7.946,7.946S502.465,54.032,498.076,54.032z"/>
	<path style="fill:#F9D366;" d="M442.455,54.032h-20.659c-4.389,0-7.946-3.558-7.946-7.946s3.557-7.946,7.946-7.946h20.659
		c4.389,0,7.946,3.558,7.946,7.946S446.843,54.032,442.455,54.032z"/>
	<path style="fill:#F9D366;" d="M433.274,285.532c-4.389,0-7.946-3.558-7.946-7.946v-20.659c0-4.388,3.557-7.946,7.946-7.946
		s7.946,3.558,7.946,7.946v20.659C441.22,281.974,437.664,285.532,433.274,285.532z"/>
	<path style="fill:#F9D366;" d="M433.274,341.152c-4.389,0-7.946-3.558-7.946-7.946v-20.659c0-4.388,3.557-7.946,7.946-7.946
		s7.946,3.558,7.946,7.946v20.659C441.22,337.594,437.664,341.152,433.274,341.152z"/>
	<path style="fill:#F9D366;" d="M471.414,303.012h-20.659c-4.389,0-7.946-3.558-7.946-7.946s3.557-7.946,7.946-7.946h20.659
		c4.389,0,7.946,3.558,7.946,7.946S475.803,303.012,471.414,303.012z"/>
	<path style="fill:#F9D366;" d="M415.794,303.012h-20.659c-4.389,0-7.946-3.558-7.946-7.946s3.557-7.946,7.946-7.946h20.659
		c4.389,0,7.946,3.558,7.946,7.946S420.183,303.012,415.794,303.012z"/>
</g>
<polygon style="fill:#EF8C33;" points="321.431,221.986 31.417,512 5.978,486.562 295.991,196.548 332.216,189.154 "/>
<polygon style="fill:#D87625;" points="308.824,209.38 18.81,499.394 5.978,486.562 295.991,196.548 325.073,182.01 "/>
<path style="fill:#ED4596;" d="M443.301,214.576l-43.99-0.572c-5.361-0.064-10.415,2.511-13.519,6.887l-14.801,20.936
	l-10.595,14.992c-7.798,11.019-24.856,8.317-28.861-4.577l-13.064-42.009c-1.589-5.128-5.605-9.133-10.722-10.722l-42.02-13.064
	c-12.894-4.005-15.596-21.063-4.566-28.861l35.917-25.407c4.386-3.094,6.961-8.148,6.887-13.509l-0.562-43.99
	c-0.17-13.509,15.214-21.349,26.042-13.275l28.839,21.518l6.421,4.8c4.291,3.21,9.896,4.1,14.971,2.373l41.67-14.134
	c12.788-4.333,25.004,7.883,20.66,20.671l-14.123,41.659c-1.727,5.086-0.837,10.68,2.363,14.981l26.318,35.26
	C464.639,199.362,456.81,214.746,443.301,214.576z"/>
<path style="fill:#F777CE;" d="M443.301,214.576l-43.99-0.572c-5.361-0.064-10.415,2.511-13.519,6.887l-14.801,20.936
	c-27.187-18.255-45.082-49.288-45.082-84.495c0-29.38,12.46-55.846,32.378-74.408l6.421,4.8c4.291,3.21,9.896,4.1,14.971,2.373
	l41.67-14.134c12.788-4.333,25.004,7.883,20.66,20.671l-14.123,41.659c-1.727,5.086-0.837,10.68,2.363,14.981l26.318,35.26
	C464.639,199.362,456.81,214.746,443.301,214.576z"/>
<g>
</g>
<g>
</g>
<g>
</g>
<g>
</g>
<g>
</g>
<g>
</g>
<g>
</g>
<g>
</g>
<g>
</g>
<g>
</g>
<g>
</g>
<g>
</g>
<g>
</g>
<g>
</g>
<g>
</g>
</svg>
